# xmcd
#
# Track frame offsets:
#	182
#	13012
#	26072
#	37797
#	51342
#	64120
#	75507
#	87015
#	98072
#	107427
#	118352
#	130582
#	143615
#	156465
#	168697
#	183345
#	194635
#	206730
#	219837
#	230687
#	243265
#	255015
#	266750
#	277497
#	288167
#
# Disc length: 4020 seconds
#
# Revision: 2
# Processed by: cddbd v1.4b41PL3 Copyright (c) Steve Scherf et al.
# Submitted via: CDmax 1.7.6
#
DISCID=640fb219
DTITLE=Various Artist - Cat'n Around
DYEAR=1900
DGENRE=
TTITLE0=Harry Choates - Cat'n Around
TTITLE1=Ray Welch - Louisiana Blues
TTITLE2=Ramblin' Tommy Scott - Tennessee
TTITLE3=Vance Bros. - Can't Get You Out of my Dreams
TTITLE4=Art Gunn - Cornbread Boogie
TTITLE5=Vance Bros. - Draftboard Blues
TTITLE6=Woody Carter - Sittin' on the Doorstep
TTITLE7=Laverl Carrico - My Life's Story
TTITLE8=Dolores - Pickin'
TTITLE9=Bill Grady - I'll Always Get Along
TTITLE10=Morris Mills - Steppin' On Feet For Fun
TTITLE11=Curley Rash - Was it just a year ago?
TTITLE12=Clint Small - Texas Rag
TTITLE13=Clint Small - Someone Cares
TTITLE14=Yodelling Bob Stotts - I Guess I Learn A Lot Every Day
TTITLE15=Woody Carter - Who's Gonna Chop My Baby's Firewood?
TTITLE16=Barney Vardeman - Let's Call it Quits
TTITLE17=Sonny Hall - Just A Little Bit More
TTITLE18=Art Gunn - Boogie Woogie Blues
TTITLE19=Ramblin' Tommy Scott - When A Man Gets The Blues
TTITLE20=Bob Green - Somebody Stole My Rag Mop
TTITLE21=Bar X Coyboys - Fairweather Friend
TTITLE22=Bill Grady - Ramblin' Man
TTITLE23=Curley Rash - Humble Road Boogie
TTITLE24=Harry Choates - Harry's Blues
EXTD=
EXTT0=
EXTT1=
EXTT2=
EXTT3=
EXTT4=
EXTT5=
EXTT6=
EXTT7=
EXTT8=
EXTT9=
EXTT10=
EXTT11=
EXTT12=
EXTT13=
EXTT14=
EXTT15=
EXTT16=
EXTT17=
EXTT18=
EXTT19=
EXTT20=
EXTT21=
EXTT22=
EXTT23=
EXTT24=
PLAYORDER=
